HIERARCHY
ROOT Hips
{
	OFFSET -0.756626 87.889206 8.048331
	CHANNELS 6 Xposition Yposition Zposition Zrotation Yrotation Xrotation 
	JOINT Spine
	{
		OFFSET 0.000000 8.814246 -2.080107
		CHANNELS 3 Zrotation Yrotation Xrotation
		JOINT Spine1
		{
			OFFSET -0.000000 8.844141 0.000000
			CHANNELS 3 Zrotation Yrotation Xrotation
			JOINT Spine2
			{
				OFFSET -0.000000 11.682268 -0.000000
				CHANNELS 3 Zrotation Yrotation Xrotation
				JOINT Spine3
				{
					OFFSET 0.000000 11.746700 -0.000000
					CHANNELS 3 Zrotation Yrotation Xrotation
					JOINT Neck
					{
						OFFSET -0.000000 17.658264 0.000000
						CHANNELS 3 Zrotation Yrotation Xrotation
						JOINT Neck1
						{
							OFFSET -0.000000 5.101515 0.000000
							CHANNELS 3 Zrotation Yrotation Xrotation
							JOINT Head
							{
								OFFSET 0.000000 5.101515 -0.000000
								CHANNELS 3 Zrotation Yrotation Xrotation
								JOINT HeadEnd
								{
									OFFSET 0.000000 11.655085 -0.000000
									CHANNELS 3 Zrotation Yrotation Xrotation
									End Site
									{
										OFFSET 0.000000 0.000000 0.000000
									}
								}
							}
						}
					}
					JOINT RightShoulder
					{
						OFFSET -2.625389 11.175210 0.000000
						CHANNELS 3 Zrotation Yrotation Xrotation
						JOINT RightArm
						{
							OFFSET 0.000000 10.434715 0.000000
							CHANNELS 3 Zrotation Yrotation Xrotation
							JOINT RightForeArm
							{
								OFFSET -0.000000 29.628420 0.000000
								CHANNELS 3 Zrotation Yrotation Xrotation
								JOINT RightHand
								{
									OFFSET -0.000000 22.857611 -0.000000
									CHANNELS 3 Zrotation Yrotation Xrotation
									JOINT RightHandThumb1
									{
										OFFSET -2.867323 3.959563 2.944291
										CHANNELS 3 Zrotation Yrotation Xrotation
										JOINT RightHandThumb2
										{
											OFFSET -0.000000 3.350399 0.000000
											CHANNELS 3 Zrotation Yrotation Xrotation
											JOINT RightHandThumb3
											{
												OFFSET 0.000000 3.756509 0.000000
												CHANNELS 3 Zrotation Yrotation Xrotation
												JOINT RightHandThumb4
												{
													OFFSET 0.000000 3.147345 -0.000000
													CHANNELS 3 Zrotation Yrotation Xrotation
													End Site
													{
														OFFSET 0.000000 0.000000 0.000000
													}
												}
											}
										}
									}
									JOINT RightHandIndex1
									{
										OFFSET -0.086752 10.030893 2.345280
										CHANNELS 3 Zrotation Yrotation Xrotation
										JOINT RightHandIndex2
										{
											OFFSET 0.000000 4.061090 -0.000000
											CHANNELS 3 Zrotation Yrotation Xrotation
											JOINT RightHandIndex3
											{
												OFFSET 0.000000 3.248873 -0.000000
												CHANNELS 3 Zrotation Yrotation Xrotation
												JOINT RightHandIndex4
												{
													OFFSET 0.000000 2.639709 -0.000000
													CHANNELS 3 Zrotation Yrotation Xrotation
													End Site
													{
														OFFSET 0.000000 0.000000 0.000000
													}
												}
											}
										}
									}
									JOINT RightHandMiddle1
									{
										OFFSET 0.104102 9.502952 0.006768
										CHANNELS 3 Zrotation Yrotation Xrotation
										JOINT RightHandMiddle2
										{
											OFFSET -0.000000 4.568727 0.000000
											CHANNELS 3 Zrotation Yrotation Xrotation
											JOINT RightHandMiddle3
											{
												OFFSET -0.000000 3.654981 -0.000000
												CHANNELS 3 Zrotation Yrotation Xrotation
												JOINT RightHandMiddle4
												{
													OFFSET 0.000000 2.741236 -0.000000
													CHANNELS 3 Zrotation Yrotation Xrotation
													End Site
													{
														OFFSET 0.000000 0.000000 0.000000
													}
												}
											}
										}
									}
									JOINT RightHandRing1
									{
										OFFSET 0.086752 8.921708 -2.267442
										CHANNELS 3 Zrotation Yrotation Xrotation
										JOINT RightHandRing2
										{
											OFFSET -0.000000 4.061090 0.000000
											CHANNELS 3 Zrotation Yrotation Xrotation
											JOINT RightHandRing3
											{
												OFFSET -0.000000 3.654981 0.000000
												CHANNELS 3 Zrotation Yrotation Xrotation
												JOINT RightHandRing4
												{
													OFFSET 0.000000 2.741236 0.000000
													CHANNELS 3 Zrotation Yrotation Xrotation
													End Site
													{
														OFFSET 0.000000 0.000000 0.000000
													}
												}
											}
										}
									}
									JOINT RightHandPinky1
									{
										OFFSET -0.173504 7.976997 -4.467199
										CHANNELS 3 Zrotation Yrotation Xrotation
										JOINT RightHandPinky2
										{
											OFFSET 0.000000 3.350399 0.000000
											CHANNELS 3 Zrotation Yrotation Xrotation
											JOINT RightHandPinky3
											{
												OFFSET -0.000000 2.842763 -0.000000
												CHANNELS 3 Zrotation Yrotation Xrotation
												JOINT RightHandPinky4
												{
													OFFSET -0.000000 2.639709 0.000000
													CHANNELS 3 Zrotation Yrotation Xrotation
													End Site
													{
														OFFSET 0.000000 0.000000 0.000000
													}
												}
											}
										}
									}
									JOINT RightForeArmEnd
									{
										OFFSET 0.000000 0.000000 0.000000
										CHANNELS 3 Zrotation Yrotation Xrotation
										End Site
										{
											OFFSET 0.000000 0.000000 0.000000
										}
									}
								}
								JOINT RightArmEnd
								{
									OFFSET 0.000000 0.000000 0.000000
									CHANNELS 3 Zrotation Yrotation Xrotation
									End Site
									{
										OFFSET 0.000000 0.000000 0.000000
									}
								}
							}
						}
					}
					JOINT LeftShoulder
					{
						OFFSET 2.625389 11.175210 0.000000
						CHANNELS 3 Zrotation Yrotation Xrotation
						JOINT LeftArm
						{
							OFFSET 0.000000 10.813635 -0.000000
							CHANNELS 3 Zrotation Yrotation Xrotation
							JOINT LeftForeArm
							{
								OFFSET -0.000000 28.724781 -0.000000
								CHANNELS 3 Zrotation Yrotation Xrotation
								JOINT LeftHand
								{
									OFFSET 0.644384 25.716167 -0.328871
									CHANNELS 3 Zrotation Yrotation Xrotation
									JOINT LeftHandThumb1
									{
										OFFSET 2.867323 3.959563 2.944291
										CHANNELS 3 Zrotation Yrotation Xrotation
										JOINT LeftHandThumb2
										{
											OFFSET -0.000000 3.350399 -0.000000
											CHANNELS 3 Zrotation Yrotation Xrotation
											JOINT LeftHandThumb3
											{
												OFFSET 0.000000 3.756509 -0.000000
												CHANNELS 3 Zrotation Yrotation Xrotation
												JOINT LeftHandThumb4
												{
													OFFSET 0.000000 3.100000 0.000000
													CHANNELS 3 Zrotation Yrotation Xrotation
													End Site
													{
														OFFSET 0.000000 0.000000 0.000000
													}
												}
											}
										}
									}
									JOINT LeftHandIndex1
									{
										OFFSET 0.086752 10.030893 2.345280
										CHANNELS 3 Zrotation Yrotation Xrotation
										JOINT LeftHandIndex2
										{
											OFFSET -0.000000 4.061090 0.000000
											CHANNELS 3 Zrotation Yrotation Xrotation
											JOINT LeftHandIndex3
											{
												OFFSET -0.000000 3.248873 0.000000
												CHANNELS 3 Zrotation Yrotation Xrotation
												JOINT LeftHandIndex4
												{
													OFFSET -0.000000 2.639709 0.000000
													CHANNELS 3 Zrotation Yrotation Xrotation
													End Site
													{
														OFFSET 0.000000 0.000000 0.000000
													}
												}
											}
										}
									}
									JOINT LeftHandMiddle1
									{
										OFFSET -0.104102 9.502952 0.006768
										CHANNELS 3 Zrotation Yrotation Xrotation
										JOINT LeftHandMiddle2
										{
											OFFSET -0.000000 4.568727 0.000000
											CHANNELS 3 Zrotation Yrotation Xrotation
											JOINT LeftHandMiddle3
											{
												OFFSET -0.000000 3.654981 -0.000000
												CHANNELS 3 Zrotation Yrotation Xrotation
												JOINT LeftHandMiddle4
												{
													OFFSET -0.000000 2.741236 0.000000
													CHANNELS 3 Zrotation Yrotation Xrotation
													End Site
													{
														OFFSET 0.000000 0.000000 0.000000
													}
												}
											}
										}
									}
									JOINT LeftHandRing1
									{
										OFFSET -0.086752 8.921708 -2.267442
										CHANNELS 3 Zrotation Yrotation Xrotation
										JOINT LeftHandRing2
										{
											OFFSET -0.000000 4.061090 -0.000000
											CHANNELS 3 Zrotation Yrotation Xrotation
											JOINT LeftHandRing3
											{
												OFFSET -0.000000 3.654981 -0.000000
												CHANNELS 3 Zrotation Yrotation Xrotation
												JOINT LeftHandRing4
												{
													OFFSET -0.000000 2.741236 0.000000
													CHANNELS 3 Zrotation Yrotation Xrotation
													End Site
													{
														OFFSET 0.000000 0.000000 0.000000
													}
												}
											}
										}
									}
									JOINT LeftHandPinky1
									{
										OFFSET 0.173504 7.976997 -4.467199
										CHANNELS 3 Zrotation Yrotation Xrotation
										JOINT LeftHandPinky2
										{
											OFFSET -0.000000 3.350399 -0.000000
											CHANNELS 3 Zrotation Yrotation Xrotation
											JOINT LeftHandPinky3
											{
												OFFSET 0.000000 2.842763 0.000000
												CHANNELS 3 Zrotation Yrotation Xrotation
												JOINT LeftHandPinky4
												{
													OFFSET -0.000000 2.639709 -0.000000
													CHANNELS 3 Zrotation Yrotation Xrotation
													End Site
													{
														OFFSET 0.000000 0.000000 0.000000
													}
												}
											}
										}
									}
									JOINT LeftForeArmEnd
									{
										OFFSET 0.000000 0.000000 0.000000
										CHANNELS 3 Zrotation Yrotation Xrotation
										End Site
										{
											OFFSET 0.000000 0.000000 0.000000
										}
									}
								}
								JOINT LeftArmEnd
								{
									OFFSET 0.000000 0.000000 0.000000
									CHANNELS 3 Zrotation Yrotation Xrotation
									End Site
									{
										OFFSET 0.000000 0.000000 0.000000
									}
								}
							}
						}
					}
				}
			}
		}
	}
	JOINT RightUpLeg
	{
		OFFSET -11.289943 -0.000000 -0.000000
		CHANNELS 3 Zrotation Yrotation Xrotation
		JOINT RightLeg
		{
			OFFSET 0.000000 -38.200325 -0.000000
			CHANNELS 3 Zrotation Yrotation Xrotation
			JOINT RightFoot
			{
				OFFSET -0.000000 -39.900856 -0.000000
				CHANNELS 3 Zrotation Yrotation Xrotation
				JOINT RightToeBase
				{
					OFFSET 0.000000 0.000000 15.261641
					CHANNELS 3 Zrotation Yrotation Xrotation
					JOINT RightToeBaseEnd
					{
						OFFSET 0.000000 -0.000000 7.370709
						CHANNELS 3 Zrotation Yrotation Xrotation
						End Site
						{
							OFFSET 0.000000 0.000000 0.000000
						}
					}
				}
				JOINT RightLegEnd
				{
					OFFSET 0.000000 0.000000 0.000000
					CHANNELS 3 Zrotation Yrotation Xrotation
					End Site
					{
						OFFSET 0.000000 0.000000 0.000000
					}
				}
			}
			JOINT RightUpLegEnd
			{
				OFFSET 0.000000 0.000000 0.000000
				CHANNELS 3 Zrotation Yrotation Xrotation
				End Site
				{
					OFFSET 0.000000 0.000000 0.000000
				}
			}
		}
	}
	JOINT LeftUpLeg
	{
		OFFSET 11.315661 -0.000000 -0.000000
		CHANNELS 3 Zrotation Yrotation Xrotation
		JOINT LeftLeg
		{
			OFFSET -0.000000 -38.200325 -0.000000
			CHANNELS 3 Zrotation Yrotation Xrotation
			JOINT LeftFoot
			{
				OFFSET 0.000000 -39.900856 0.000000
				CHANNELS 3 Zrotation Yrotation Xrotation
				JOINT LeftToeBase
				{
					OFFSET 0.000000 -0.000000 15.261641
					CHANNELS 3 Zrotation Yrotation Xrotation
					JOINT LeftToeBaseEnd
					{
						OFFSET -0.000000 0.000000 7.539996
						CHANNELS 3 Zrotation Yrotation Xrotation
						End Site
						{
							OFFSET 0.000000 0.000000 0.000000
						}
					}
				}
				JOINT LeftLegEnd
				{
					OFFSET 0.000000 0.000000 0.000000
					CHANNELS 3 Zrotation Yrotation Xrotation
					End Site
					{
						OFFSET 0.000000 0.000000 0.000000
					}
				}
			}
			JOINT LeftUpLegEnd
			{
				OFFSET 0.000000 0.000000 0.000000
				CHANNELS 3 Zrotation Yrotation Xrotation
				End Site
				{
					OFFSET 0.000000 0.000000 0.000000
				}
			}
		}
	}
}
MOTION
Frames: 4
Frame Time: 0.016667
0.529969 87.481377 7.383287 -1.592629 -2.584175 -19.841362 -0.598287 0.037997 10.906047 0.110188 -0.077944 0.452943 2.894463 -1.743153 15.456552 2.830286 -0.284750 7.861256 -2.447691 2.825005 12.151847 0.209823 2.087785 0.405478 -1.079022 0.291892 -20.646597 0.000000 0.000000 0.000000 91.980011 -0.710608 10.075998 56.829285 -24.518930 13.966801 -0.228217 6.211566 28.063404 8.720902 29.581482 -7.502334 10.523718 -1.825567 39.953362 0.000003 0.000010 -25.628130 -0.000022 0.000065 -17.812685 0.000018 0.000003 -0.000008 11.515731 16.540174 -10.444441 9.323082 -0.684323 -2.851214 9.351574 0.292000 -2.693206 -0.000003 0.000011 -0.000003 12.098392 6.864457 -11.455598 9.302926 -0.867895 -1.128922 9.311987 0.099163 -0.960124 -0.000005 -0.000001 0.000019 17.214199 -8.833828 -12.445680 10.999286 1.792710 1.635365 10.827784 -0.149700 1.258627 -0.000010 0.001151 0.000030 21.953016 -25.019138 -14.275019 11.100878 3.397094 4.868621 11.074249 -0.480528 4.116659 -0.000534 -0.000003 -0.000027 0.000000 0.000000 0.000000 0.000000 0.000000 0.000000 -92.470947 0.300448 13.848919 -57.742599 38.985455 9.919570 -0.567039 -11.922715 38.728436 -8.143958 -21.108915 -11.533932 -10.620502 1.877502 39.842976 0.000014 0.000033 -25.903852 -0.000048 -0.000017 -18.073767 -0.002044 -0.000005 -0.001070 -18.325592 16.183170 -9.346326 -10.018937 -0.670116 2.960625 -10.044017 0.286047 2.755954 -0.000012 0.000162 -0.000004 -16.024443 6.719300 -10.527129 -9.746292 -0.868533 1.140616 -9.704599 0.098371 0.963950 0.000564 -0.000040 0.000063 -14.901360 -8.680476 -10.062366 -10.738487 1.801798 -1.562385 -10.728413 -0.127352 -1.215742 -0.000927 0.000011 -0.000006 -12.698960 -25.073366 -11.968820 -10.698311 3.465900 -4.454147 -10.723830 -0.386213 -3.795190 -0.000314 -0.000000 -0.000049 0.000000 0.000000 0.000000 0.000000 0.000000 0.000000 0.544515 6.695556 17.443571 -0.192201 -0.706344 16.239635 -1.358272 -1.708445 12.379678 -0.648060 1.096013 -18.013279 0.000000 0.000000 0.000000 0.000000 0.000000 0.000000 0.000000 0.000000 0.000000 10.566182 9.421235 26.064156 0.239014 1.190803 10.007218 -6.256688 13.138666 11.290232 1.589923 -1.661215 -15.257576 0.000000 0.000000 0.000000 0.000000 0.000000 0.000000 0.000000 0.000000 0.000000 
0.537513 87.477867 7.391046 -1.586861 -2.581853 -19.838633 -0.607116 0.040359 10.911794 0.118815 -0.076868 0.464551 2.874038 -1.718278 15.447754 2.826572 -0.278472 7.850063 -2.449281 2.797638 12.175266 0.203728 2.053509 0.422369 -1.068525 0.292665 -20.634102 0.000000 0.000000 0.000000 91.969139 -0.706941 10.092673 56.714828 -24.629789 14.080561 -0.222151 6.108938 27.942839 8.665731 29.638607 -7.519765 10.519928 -1.825764 39.955322 0.000003 0.000010 -25.614908 -0.000023 0.000066 -17.803787 0.000018 0.000003 -0.000008 11.459926 16.539436 -10.453941 9.303313 -0.686085 -2.848244 9.331069 0.290023 -2.690894 -0.000003 0.000011 -0.000003 12.049484 6.863766 -11.452907 9.282582 -0.868626 -1.127472 9.290815 0.098534 -0.959079 -0.000005 -0.000001 0.000019 17.175676 -8.833427 -12.425621 10.982984 1.794076 1.633864 10.811115 -0.148621 1.257520 -0.000010 0.001166 0.000030 21.917994 -25.023458 -14.234107 11.092820 3.400401 4.864947 11.064876 -0.477593 4.113272 -0.000538 -0.000003 -0.000027 0.000000 0.000000 0.000000 0.000000 0.000000 0.000000 -92.450974 0.299405 13.848762 -57.595726 39.120239 10.043634 -0.567400 -11.826733 38.638565 -8.083372 -21.274864 -11.536134 -10.618559 1.876588 39.843945 0.000015 0.000033 -25.900063 -0.000047 -0.000017 -18.071487 -0.002054 -0.000005 -0.001114 -18.296696 16.187113 -9.323803 -10.017901 -0.671638 2.957553 -10.044233 0.284556 2.753017 -0.000012 0.000175 -0.000003 -16.008011 6.720475 -10.502312 -9.744123 -0.869214 1.138948 -9.704319 0.097936 0.962666 0.000552 -0.000040 0.000064 -14.902922 -8.680871 -10.021487 -10.736136 1.802727 -1.559425 -10.722858 -0.126666 -1.213594 -0.000928 0.000011 -0.000006 -12.733358 -25.073206 -11.911129 -10.701808 3.467808 -4.444576 -10.725868 -0.384192 -3.787417 -0.000309 -0.000000 -0.000049 0.000000 0.000000 0.000000 0.000000 0.000000 0.000000 0.543295 6.702406 17.434710 -0.191643 -0.704893 16.263739 -1.357474 -1.711748 12.365731 -0.644269 1.095391 -18.012365 0.000000 0.000000 0.000000 0.000000 0.000000 0.000000 0.000000 0.000000 0.000000 10.552711 9.426274 26.060217 0.238446 1.189419 10.020456 -6.256066 13.153237 11.288028 1.589792 -1.662174 -15.262156 0.000000 0.000000 0.000000 0.000000 0.000000 0.000000 0.000000 0.000000 0.000000 
0.544378 87.474281 7.398759 -1.580921 -2.580206 -19.834986 -0.615721 0.042653 10.916496 0.126925 -0.075730 0.475453 2.854092 -1.692162 15.440562 2.823348 -0.271703 7.840796 -2.449191 2.769069 12.198645 0.198169 2.018951 0.438106 -1.057462 0.293463 -20.622425 0.000000 0.000000 0.000000 91.959900 -0.703171 10.107712 56.606621 -24.717478 14.181570 -0.215664 6.019205 27.823639 8.614108 29.711666 -7.538831 10.516341 -1.825915 39.957218 0.000003 0.000010 -25.602133 -0.000023 0.000066 -17.795279 0.000019 0.000003 -0.000008 11.406942 16.538885 -10.465763 9.284800 -0.687745 -2.845527 9.311671 0.288187 -2.688740 -0.000003 0.000011 -0.000004 12.003491 6.863159 -11.452468 9.264055 -0.869308 -1.126124 9.271670 0.097945 -0.958114 -0.000005 -0.000001 0.000019 17.142967 -8.833092 -12.408173 10.969931 1.795342 1.632585 10.797561 -0.147625 1.256565 -0.000010 0.001178 0.000030 21.891483 -25.027514 -14.197033 11.088766 3.403316 4.862193 11.059525 -0.475050 4.110648 -0.000541 -0.000004 -0.000027 0.000000 0.000000 0.000000 0.000000 0.000000 0.000000 -92.431274 0.298902 13.844789 -57.452003 39.231052 10.159028 -0.569438 -11.741375 38.550941 -8.023805 -21.436007 -11.542488 -10.616469 1.875764 39.844975 0.000015 0.000033 -25.895742 -0.000046 -0.000017 -18.068638 -0.002064 -0.000005 -0.001157 -18.265303 16.190641 -9.303663 -10.015197 -0.673109 2.954449 -10.042357 0.283113 2.750072 -0.000012 0.000186 -0.000003 -15.988707 6.721504 -10.479966 -9.740287 -0.869874 1.137278 -9.702498 0.097512 0.961384 0.000538 -0.000039 0.000066 -14.900619 -8.681192 -9.984139 -10.732261 1.803605 -1.556620 -10.716261 -0.126010 -1.211540 -0.000932 0.000011 -0.000006 -12.761476 -25.072939 -11.858697 -10.703669 3.469588 -4.435661 -10.726520 -0.382316 -3.780062 -0.000305 -0.000000 -0.000049 0.000000 0.000000 0.000000 0.000000 0.000000 0.000000 0.541874 6.708051 17.424774 -0.191164 -0.703687 16.288654 -1.356644 -1.715606 12.350847 -0.640522 1.094736 -18.012167 0.000000 0.000000 0.000000 0.000000 0.000000 0.000000 0.000000 0.000000 0.000000 10.538559 9.429645 26.056194 0.237906 1.188071 10.033731 -6.255469 13.168376 11.285718 1.589793 -1.663048 -15.267497 0.000000 0.000000 0.000000 0.000000 0.000000 0.000000 0.000000 0.000000 0.000000 
0.550537 87.470680 7.406356 -1.574774 -2.579277 -19.830246 -0.624143 0.044783 10.920244 0.134467 -0.074639 0.485683 2.834606 -1.665239 15.434471 2.820604 -0.264655 7.833466 -2.447394 2.739915 12.221581 0.193040 1.984804 0.452592 -1.046033 0.294404 -20.611452 0.000000 0.000000 0.000000 91.951859 -0.699331 10.121159 56.503525 -24.787531 14.270468 -0.209198 5.940278 27.709703 8.567460 29.795296 -7.559278 10.512993 -1.826039 39.959023 0.000003 0.000010 -25.589949 -0.000023 0.000066 -17.787182 0.000019 0.000003 -0.000008 11.357126 16.538441 -10.479809 9.267584 -0.689294 -2.843125 9.293443 0.286502 -2.686799 -0.000003 0.000011 -0.000004 11.960637 6.862611 -11.454208 9.247355 -0.869937 -1.124898 9.254531 0.097399 -0.957249 -0.000005 -0.000000 0.000019 17.115883 -8.832805 -12.393129 10.959921 1.796502 1.631539 10.786935 -0.146715 1.255775 -0.000010 0.001187 0.000030 21.872629 -25.031288 -14.163447 11.088252 3.405849 4.860314 11.057745 -0.472880 4.108760 -0.000543 -0.000004 -0.000027 0.000000 0.000000 0.000000 0.000000 0.000000 0.000000 -92.411545 0.298615 13.837576 -57.312454 39.323551 10.265388 -0.573057 -11.664358 38.464973 -7.967595 -21.586229 -11.552653 -10.614395 1.875059 39.845985 0.000015 0.000033 -25.891273 -0.000046 -0.000016 -18.065521 -0.002074 -0.000005 -0.001198 -18.232193 16.193663 -9.285912 -10.010862 -0.674512 2.951412 -10.038416 0.281733 2.747216 -0.000013 0.000196 -0.000003 -15.967025 6.722362 -10.460155 -9.734779 -0.870505 1.135643 -9.699133 0.097107 0.960137 0.000519 -0.000039 0.000067 -14.894364 -8.681414 -9.950356 -10.726652 1.804424 -1.554022 -10.708388 -0.125391 -1.209616 -0.000939 0.000011 -0.000006 -12.782537 -25.072508 -11.811488 -10.703407 3.471230 -4.427486 -10.725358 -0.380594 -3.773226 -0.000301 0.000000 -0.000049 0.000000 0.000000 0.000000 0.000000 0.000000 0.000000 0.540353 6.712465 17.413540 -0.190752 -0.702689 16.314104 -1.356107 -1.720051 12.335508 -0.636866 1.094002 -18.012642 0.000000 0.000000 0.000000 0.000000 0.000000 0.000000 0.000000 0.000000 0.000000 10.523760 9.431855 26.051725 0.237392 1.186739 10.046972 -6.254909 13.184127 11.283614 1.589888 -1.663805 -15.273688 0.000000 0.000000 0.000000 0.000000 0.000000 0.000000 0.000000 0.000000 0.000000 
